<svg width="128" height="124" viewBox="0 0 128 124" version="1.1" xmlns="http://www.w3.org/2000/svg" xmlns:xlink="http://www.w3.org/1999/xlink" xmlns:figma="http://www.figma.com/figma/ns">
<title>Group</title>
<desc>Created using Figma</desc>
<g id="Canvas" transform="translate(129 170)" figma:type="canvas">
<g id="Group" style="mix-blend-mode:normal;" figma:type="frame">
<g id="noun_424807_cc" style="mix-blend-mode:normal;" figma:type="frame">
<g id="Group" style="mix-blend-mode:normal;" figma:type="frame">
<g id="Vector 2" style="mix-blend-mode:normal;" figma:type="vector">
<use xlink:href="#path0_fill" transform="translate(-103.301 -117)" fill="#F74160" style="mix-blend-mode:normal;"/>
<use xlink:href="#path1_stroke" transform="translate(-103.301 -117)" fill="#F74160" style="mix-blend-mode:normal;"/>
</g>
</g>
<g id="Vector" style="mix-blend-mode:normal;" figma:type="vector">
<use xlink:href="#path2_fill" transform="translate(-105 -119.415)" fill="#383838" style="mix-blend-mode:normal;"/>
</g>
<g id="Vector" style="mix-blend-mode:normal;" figma:type="vector">
<use xlink:href="#path3_fill" transform="translate(-100.293 -170)" fill="#383838" style="mix-blend-mode:normal;"/>
</g>
<g id="Vector" style="mix-blend-mode:normal;" figma:type="vector">
<use xlink:href="#path4_fill" transform="translate(-79.3726 -131.603)" fill="#383838" style="mix-blend-mode:normal;"/>
</g>
</g>
<g id="SWEET &#38; SOUR" style="mix-blend-mode:normal;" figma:type="text">
<use xlink:href="#path5_fill" transform="translate(-129 -64)" fill="#383838" style="mix-blend-mode:normal;"/>
</g>
</g>
</g>
<defs>
<path id="path0_fill" d="M 71.5 0L 0 0C 3 12 8.5 36 37 36C 65.5 36 70.1667 12 71.5 0Z"/>
<path id="path1_stroke" d="M 0 0L 0 -0.5L -0.640388 -0.5L -0.485071 0.121268L 0 0ZM 71.5 0L 71.9969 0.0552159L 72.0586 -0.5L 71.5 -0.5L 71.5 0ZM 0 0.5L 71.5 0.5L 71.5 -0.5L 0 -0.5L 0 0.5ZM 71.0031 -0.0552159C 70.3381 5.93127 68.8675 14.8184 64.0188 22.2267C 59.2139 29.5874 51.0786 35.5 37 35.5L 37 36.5C 51.4214 36.5 59.8694 30.4126 64.8562 22.7733C 69.7992 15.1816 71.3286 6.06873 71.9969 0.0552159L 71.0031 -0.0552159ZM 37 35.5C 22.9216 35.5 14.5699 29.5865 9.34551 22.211C 4.08071 14.7943 1.98586 5.88192 0.485071 -0.121268L -0.485071 0.121268C 1.01414 6.11808 3.16929 15.2057 8.52949 22.789C 13.9301 30.4135 22.5784 36.5 37 36.5L 37 35.5Z"/>
<path id="path2_fill" d="M 21.105 37.415L 7.73 37.415C 6.626 37.415 5.73 38.311 5.73 39.415C 5.73 40.519 6.626 41.415 7.73 41.415L 68.392 41.415C 69.496 41.415 70.392 40.519 70.392 39.415C 70.392 38.311 69.496 37.415 68.392 37.415L 55.017 37.415C 67.515 31.168 76.121 18.251 76.121 3.354L 76.121 2C 76.121 0.895999 75.225 -9.46045e-07 74.121 -9.46045e-07L 2 -9.46045e-07C 0.896 -9.46045e-07 -3.58582e-07 0.895999 -3.58582e-07 2L -3.58582e-07 3.354C -3.58582e-07 18.251 8.607 31.168 21.105 37.415ZM 72.116 4C 71.77 22.484 56.627 37.415 38.061 37.415C 19.495 37.415 4.352 22.484 4.006 4L 72.116 4Z"/>
<path id="path3_fill" d="M 1.999 47.3812C 3.103 47.3812 3.999 46.4852 3.999 45.3812C 3.999 41.5932 7.08 38.5122 10.867 38.5122C 10.892 38.5122 10.915 38.5062 10.939 38.5052C 10.856 39.0462 10.799 39.5962 10.799 40.1612C 10.799 41.2652 11.695 42.1612 12.799 42.1612C 13.903 42.1612 14.799 41.2652 14.799 40.1612C 14.799 36.3742 17.88 33.2932 21.667 33.2932C 23.043 33.2932 24.371 33.6982 25.505 34.4652C 26.423 35.0842 27.664 34.8412 28.282 33.9272C 28.9 33.0122 28.66 31.7682 27.745 31.1502C 26.795 30.5082 25.759 30.0312 24.673 29.7192C 24.758 29.4962 24.81 29.2572 24.81 29.0042C 24.81 25.2172 27.891 22.1362 31.678 22.1362C 35.038 22.1362 37.836 24.5612 38.427 27.7522C 38.148 28.0962 37.975 28.5282 37.975 29.0042C 37.975 30.1082 38.871 31.0042 39.975 31.0042C 43.734 31.0042 46.861 33.7342 47.495 37.3142C 47.282 37.6252 47.165 37.9742 47.147 38.3302C 46.709 38.8812 46.569 39.6422 46.858 40.3382C 47.283 41.3582 48.455 41.8432 49.473 41.4162C 51.988 40.3702 54.759 40.3632 57.278 41.4022C 59.797 42.4402 61.759 44.3962 62.806 46.9102C 63.126 47.6792 63.87 48.1422 64.654 48.1422C 64.91 48.1422 65.171 48.0932 65.422 47.9882C 66.442 47.5642 66.924 46.3932 66.5 45.3732C 65.042 41.8722 62.309 39.1482 58.803 37.7042C 56.996 36.9592 55.096 36.6072 53.2 36.6342L 75.302 9.63118C 76.001 8.77718 75.875 7.51618 75.021 6.81718C 74.167 6.11718 72.907 6.24318 72.207 7.09818L 50.476 33.6482C 50.173 33.0152 49.817 32.4132 49.409 31.8492L 64.911 2.94518C 65.432 1.97118 65.067 0.759183 64.094 0.237183C 63.122 -0.283817 61.909 0.0821825 61.386 1.05418L 46.421 28.9572C 45.218 28.1542 43.857 27.5702 42.396 27.2602C 41.557 22.0952 37.078 18.1352 31.68 18.1352C 25.687 18.1352 20.812 23.0102 20.812 29.0032C 20.812 29.1162 20.827 29.2252 20.845 29.3332C 17.081 29.6172 13.844 31.8172 12.124 34.9672C 11.78 34.6872 11.346 34.5112 10.868 34.5112C 4.875 34.5112 1.21008e-06 39.3862 1.21008e-06 45.3802C -0.00099879 46.4852 0.895001 47.3812 1.999 47.3812Z"/>
<path id="path4_fill" d="M 6.92161 0.0343089C 4.39761 0.247309 2.10662 1.43031 0.471618 3.36631C -0.240382 4.21031 -0.134383 5.47231 0.709617 6.18431C 1.08462 6.50131 1.54261 6.65631 1.99861 6.65631C 2.56661 6.65631 3.13262 6.41531 3.52762 5.94731C 4.47262 4.82731 5.79762 4.14331 7.25662 4.02031C 8.71962 3.89731 10.1376 4.35031 11.2576 5.29531C 12.0996 6.00831 13.3626 5.90131 14.0756 5.05831C 14.7876 4.21431 14.6816 2.95231 13.8376 2.24031C 11.9046 0.60531 9.45561 -0.178691 6.92161 0.0343089Z"/>
<path id="path5_fill" d="M 10.782 13.626C 10.782 14.694 10.428 15.582 9.72 16.29C 8.808 17.202 7.464 17.658 5.688 17.658C 4.104 17.658 2.832 17.22 1.872 16.344C 0.984 15.54 0.54 14.55 0.54 13.374L 2.916 13.374C 2.916 13.974 3.138 14.496 3.582 14.94C 4.038 15.396 4.752 15.624 5.724 15.624C 6.756 15.624 7.494 15.396 7.938 14.94C 8.274 14.58 8.442 14.172 8.442 13.716C 8.442 12.888 7.938 12.384 6.93 12.204C 6.63 12.144 6.15 12.084 5.49 12.024C 4.83 11.964 4.368 11.91 4.104 11.862C 3.156 11.706 2.376 11.328 1.764 10.728C 1.164 10.116 0.864 9.306 0.864 8.298C 0.864 7.362 1.236 6.522 1.98 5.778C 2.412 5.358 2.958 5.028 3.618 4.788C 4.278 4.548 4.98 4.428 5.724 4.428C 7.212 4.428 8.4 4.842 9.288 5.67C 10.14 6.474 10.572 7.38 10.584 8.388L 8.208 8.388C 8.184 7.92 7.998 7.5 7.65 7.128C 7.446 6.924 7.158 6.762 6.786 6.642C 6.426 6.51 6.066 6.444 5.706 6.444C 4.782 6.444 4.092 6.678 3.636 7.146C 3.348 7.458 3.204 7.818 3.204 8.226C 3.204 9.006 3.636 9.468 4.5 9.612C 4.8 9.66 5.286 9.72 5.958 9.792C 6.63 9.864 7.068 9.912 7.272 9.936C 8.292 10.08 9.132 10.47 9.792 11.106C 10.452 11.742 10.782 12.582 10.782 13.626ZM 26.763 4.662L 24.225 17.424L 21.903 17.424L 19.239 8.622L 16.575 17.424L 14.253 17.424L 11.679 4.662L 13.893 4.662L 15.675 13.536L 18.303 4.86L 20.247 4.86L 22.821 13.536L 24.639 4.662L 26.763 4.662ZM 37.6543 17.424L 28.5643 17.424L 28.5643 4.662L 37.6543 4.662L 37.6543 6.768L 30.8863 6.768L 30.8863 9.738L 36.8443 9.738L 36.8443 11.826L 30.8863 11.826L 30.8863 15.318L 37.6543 15.318L 37.6543 17.424ZM 48.957 17.424L 39.867 17.424L 39.867 4.662L 48.957 4.662L 48.957 6.768L 42.189 6.768L 42.189 9.738L 48.147 9.738L 48.147 11.826L 42.189 11.826L 42.189 15.318L 48.957 15.318L 48.957 17.424ZM 59.6658 6.822L 55.8858 6.822L 55.8858 17.424L 53.5638 17.424L 53.5638 6.822L 49.7838 6.822L 49.7838 4.662L 59.6658 4.662L 59.6658 6.822ZM 75.7599 17.442L 73.0239 17.442L 72.1239 16.434C 71.1159 17.322 69.9099 17.766 68.5059 17.766C 67.3299 17.766 66.3279 17.412 65.4999 16.704C 64.6839 15.996 64.2759 15.06 64.2759 13.896C 64.2759 12.48 65.0319 11.31 66.5439 10.386C 66.0639 9.87 65.7159 9.414 65.4999 9.018C 65.2839 8.622 65.1759 8.154 65.1759 7.614C 65.1759 6.63 65.5059 5.85 66.1659 5.274C 66.8379 4.686 67.6719 4.392 68.6679 4.392C 69.6399 4.392 70.4679 4.68 71.1519 5.256C 71.8479 5.82 72.1959 6.582 72.1959 7.542C 72.1959 8.31 71.9859 8.958 71.5659 9.486C 71.1579 10.014 70.5639 10.506 69.7839 10.962L 71.9979 13.374C 72.1659 13.062 72.2739 12.54 72.3219 11.808C 72.3459 11.424 72.3579 10.902 72.3579 10.242L 75.6519 10.242L 75.6519 12.024L 74.1759 12.024C 74.1159 13.224 73.8579 14.178 73.4019 14.886L 75.7599 17.442ZM 70.0899 7.632C 70.0899 7.2 69.9579 6.864 69.6939 6.624C 69.4299 6.372 69.0879 6.246 68.6679 6.246C 68.2719 6.246 67.9359 6.366 67.6599 6.606C 67.3839 6.834 67.2459 7.158 67.2459 7.578C 67.2459 7.698 67.2579 7.812 67.2819 7.92C 67.3059 8.028 67.3419 8.136 67.3899 8.244C 67.4499 8.352 67.4979 8.448 67.5339 8.532C 67.5819 8.604 67.6539 8.7 67.7499 8.82C 67.8579 8.928 67.9299 9.006 67.9659 9.054C 68.0139 9.102 68.0979 9.192 68.2179 9.324C 68.3499 9.444 68.4279 9.516 68.4519 9.54C 68.7519 9.372 68.9559 9.258 69.0639 9.198C 69.1839 9.126 69.3459 9.006 69.5499 8.838C 69.7539 8.67 69.8919 8.49 69.9639 8.298C 70.0479 8.106 70.0899 7.884 70.0899 7.632ZM 70.7739 15.012L 67.8579 11.79C 67.5099 11.994 67.2459 12.168 67.0659 12.312C 66.8859 12.444 66.7179 12.642 66.5619 12.906C 66.4179 13.17 66.3459 13.47 66.3459 13.806C 66.3459 14.43 66.5679 14.922 67.0119 15.282C 67.4559 15.63 67.9959 15.804 68.6319 15.804C 69.5799 15.804 70.2939 15.54 70.7739 15.012ZM 90.991 13.626C 90.991 14.694 90.637 15.582 89.929 16.29C 89.017 17.202 87.673 17.658 85.897 17.658C 84.313 17.658 83.041 17.22 82.081 16.344C 81.193 15.54 80.749 14.55 80.749 13.374L 83.125 13.374C 83.125 13.974 83.347 14.496 83.791 14.94C 84.247 15.396 84.961 15.624 85.933 15.624C 86.965 15.624 87.703 15.396 88.147 14.94C 88.483 14.58 88.651 14.172 88.651 13.716C 88.651 12.888 88.147 12.384 87.139 12.204C 86.839 12.144 86.359 12.084 85.699 12.024C 85.039 11.964 84.577 11.91 84.313 11.862C 83.365 11.706 82.585 11.328 81.973 10.728C 81.373 10.116 81.073 9.306 81.073 8.298C 81.073 7.362 81.445 6.522 82.189 5.778C 82.621 5.358 83.167 5.028 83.827 4.788C 84.487 4.548 85.189 4.428 85.933 4.428C 87.421 4.428 88.609 4.842 89.497 5.67C 90.349 6.474 90.781 7.38 90.793 8.388L 88.417 8.388C 88.393 7.92 88.207 7.5 87.859 7.128C 87.655 6.924 87.367 6.762 86.995 6.642C 86.635 6.51 86.275 6.444 85.915 6.444C 84.991 6.444 84.301 6.678 83.845 7.146C 83.557 7.458 83.413 7.818 83.413 8.226C 83.413 9.006 83.845 9.468 84.709 9.612C 85.009 9.66 85.495 9.72 86.167 9.792C 86.839 9.864 87.277 9.912 87.481 9.936C 88.501 10.08 89.341 10.47 90.001 11.106C 90.661 11.742 90.991 12.582 90.991 13.626ZM 102.922 11.052C 102.922 12.228 102.808 13.224 102.58 14.04C 102.364 14.856 101.938 15.582 101.302 16.218C 100.342 17.178 99.118 17.658 97.63 17.658C 96.142 17.658 94.918 17.178 93.958 16.218C 93.322 15.582 92.89 14.856 92.662 14.04C 92.446 13.224 92.338 12.228 92.338 11.052C 92.338 9.864 92.446 8.862 92.662 8.046C 92.89 7.23 93.322 6.504 93.958 5.868C 94.918 4.908 96.142 4.428 97.63 4.428C 99.118 4.428 100.342 4.908 101.302 5.868C 101.938 6.504 102.364 7.23 102.58 8.046C 102.808 8.862 102.922 9.864 102.922 11.052ZM 100.564 11.052C 100.564 9.24 100.258 8.016 99.646 7.38C 99.118 6.816 98.446 6.534 97.63 6.534C 96.814 6.534 96.142 6.816 95.614 7.38C 95.002 8.016 94.696 9.24 94.696 11.052C 94.696 11.568 94.708 12 94.732 12.348C 94.756 12.696 94.84 13.104 94.984 13.572C 95.128 14.04 95.338 14.418 95.614 14.706C 96.142 15.27 96.814 15.552 97.63 15.552C 98.446 15.552 99.118 15.27 99.646 14.706C 99.922 14.418 100.132 14.04 100.276 13.572C 100.42 13.104 100.504 12.696 100.528 12.348C 100.552 12 100.564 11.568 100.564 11.052ZM 114.818 12.528C 114.818 14.088 114.386 15.336 113.522 16.272C 112.658 17.196 111.422 17.658 109.814 17.658C 108.206 17.658 106.97 17.196 106.106 16.272C 105.242 15.336 104.81 14.088 104.81 12.528L 104.81 4.662L 107.132 4.662L 107.132 12.492C 107.132 13.44 107.354 14.19 107.798 14.742C 108.242 15.282 108.914 15.552 109.814 15.552C 110.714 15.552 111.386 15.282 111.83 14.742C 112.274 14.19 112.496 13.44 112.496 12.492L 112.496 4.662L 114.818 4.662L 114.818 12.528ZM 127.249 17.424L 124.729 17.424L 122.605 12.6L 119.779 12.6L 119.779 17.424L 117.439 17.424L 117.439 4.662L 122.821 4.662C 124.261 4.662 125.359 5.046 126.115 5.814C 126.871 6.57 127.249 7.506 127.249 8.622C 127.249 9.462 127.033 10.206 126.601 10.854C 126.181 11.49 125.617 11.94 124.909 12.204L 127.249 17.424ZM 124.927 8.622C 124.927 8.082 124.735 7.626 124.351 7.254C 123.967 6.882 123.457 6.696 122.821 6.696L 119.761 6.696L 119.761 10.512L 122.857 10.512C 123.517 10.512 124.027 10.35 124.387 10.026C 124.747 9.69 124.927 9.222 124.927 8.622Z"/>
</defs>
</svg>
